%TF.GenerationSoftware,KiCad,Pcbnew,10.0.3*%
%TF.CreationDate,2026-08-28T14:23:08-03:00*%
%TF.ProjectId,ROBOTIC_ARM,524f424f-5449-4435-9f41-524d2e6b6963,rev?*%
%TF.SameCoordinates,Original*%
%TF.FileFunction,Copper,L1,Top*%
%TF.FilePolarity,Positive*%
%FSLAX46Y46*%
G04 Gerber Fmt 4.6, Leading zero omitted, Abs format (unit mm)*
G04 Created by KiCad (PCBNEW 10.0.3) date 2026-08-28 14:23:08*
%MOMM*%
%LPD*%
G01*
G04 APERTURE LIST*
G04 Aperture macros list*
%AMRoundRect*
0 Rectangle with rounded corners*
0 $1 Rounding radius*
0 $2 $3 $4 $5 $6 $7 $8 $9 X,Y pos of 4 corners*
0 Add a 4 corners polygon primitive as box body*
4,1,4,$2,$3,$4,$5,$6,$7,$8,$9,$2,$3,0*
0 Add four circle primitives for the rounded corners*
1,1,$1+$1,$2,$3*
1,1,$1+$1,$4,$5*
1,1,$1+$1,$6,$7*
1,1,$1+$1,$8,$9*
0 Add four rect primitives between the rounded corners*
20,1,$1+$1,$2,$3,$4,$5,0*
20,1,$1+$1,$4,$5,$6,$7,0*
20,1,$1+$1,$6,$7,$8,$9,0*
20,1,$1+$1,$8,$9,$2,$3,0*%
G04 Aperture macros list end*
%TA.AperFunction,ComponentPad*%
%ADD10O,3.000000X2.000000*%
%TD*%
%TA.AperFunction,ComponentPad*%
%ADD11O,2.000000X1.700000*%
%TD*%
%TA.AperFunction,ComponentPad*%
%ADD12RoundRect,0.250000X-1.050000X-1.050000X1.050000X-1.050000X1.050000X1.050000X-1.050000X1.050000X0*%
%TD*%
%TA.AperFunction,ComponentPad*%
%ADD13C,2.600000*%
%TD*%
%TA.AperFunction,ComponentPad*%
%ADD14C,2.000000*%
%TD*%
%TA.AperFunction,Conductor*%
%ADD15C,2.000000*%
%TD*%
G04 APERTURE END LIST*
D10*
%TO.P,J1,1,Pin_1_1*%
%TO.N,/VIN*%
X133000000Y-67440000D03*
%TO.P,J1,2,Pin_2_2*%
%TO.N,unconnected-(J1-Pin_2-Pad2)*%
X133000000Y-69980000D03*
%TO.P,J1,3,Pin_3_3*%
%TO.N,unconnected-(J1-Pin_3-Pad3)*%
X133000000Y-72520000D03*
%TO.P,J1,4,Pin_4_4*%
%TO.N,unconnected-(J1-Pin_4-Pad4)*%
X133000000Y-75060000D03*
%TO.P,J1,5,Pin_5_5*%
%TO.N,unconnected-(J1-Pin_5-Pad5)*%
X133000000Y-77600000D03*
%TO.P,J1,6,Pin_6_6*%
%TO.N,unconnected-(J1-Pin_6-Pad6)*%
X133000000Y-80140000D03*
%TO.P,J1,7,Pin_7_7*%
%TO.N,unconnected-(J1-Pin_7-Pad7)*%
X133000000Y-82680000D03*
%TO.P,J1,8,Pin_8_8*%
%TO.N,unconnected-(J1-Pin_8-Pad8)*%
X133000000Y-85220000D03*
%TO.P,J1,9,Pin_9_9*%
%TO.N,unconnected-(J1-Pin_9-Pad9)*%
X133000000Y-87760000D03*
%TO.P,J1,10,Pin_10_10*%
%TO.N,unconnected-(J1-Pin_10-Pad10)*%
X133000000Y-90300000D03*
%TO.P,J1,11,Pin_11_11*%
%TO.N,unconnected-(J1-Pin_11-Pad11)*%
X133000000Y-92840000D03*
%TO.P,J1,12,Pin_12_12*%
%TO.N,unconnected-(J1-Pin_12-Pad12)*%
X133000000Y-95380000D03*
%TO.P,J1,13,Pin_13_13*%
%TO.N,unconnected-(J1-Pin_13-Pad13)*%
X133000000Y-97920000D03*
%TO.P,J1,14,Pin_14_14*%
%TO.N,unconnected-(J1-Pin_14-Pad14)*%
X133000000Y-100460000D03*
%TO.P,J1,15,Pin_15_15*%
%TO.N,unconnected-(J1-Pin_15-Pad15)*%
X133000000Y-103000000D03*
%TD*%
D11*
%TO.P,J4,1,Pin_1_1*%
%TO.N,/RX*%
X101000000Y-83040000D03*
D10*
%TO.P,J4,2,Pin_2_2*%
%TO.N,/TX*%
X101000000Y-80500000D03*
%TO.P,J4,3,Pin_3_3*%
%TO.N,/GND*%
X101000000Y-77960000D03*
%TD*%
D12*
%TO.P,J3,1,Pin_1_1*%
%TO.N,/GND*%
X117500000Y-116500000D03*
D13*
%TO.P,J3,2,Pin_2_2*%
%TO.N,/VIN*%
X122500000Y-116500000D03*
%TD*%
D10*
%TO.P,J2,1,Pin_1_1*%
%TO.N,unconnected-(J2-Pin_1-Pad1)*%
X109000000Y-67440000D03*
D14*
%TO.P,J2,2,Pin_2_2*%
%TO.N,/GND*%
X109000000Y-69980000D03*
D10*
%TO.P,J2,3,Pin_3_3*%
%TO.N,unconnected-(J2-Pin_3-Pad3)*%
X109000000Y-72520000D03*
%TO.P,J2,4,Pin_4_4*%
%TO.N,unconnected-(J2-Pin_4-Pad4)*%
X109000000Y-75060000D03*
%TO.P,J2,5,Pin_5_5*%
%TO.N,unconnected-(J2-Pin_5-Pad5)*%
X109000000Y-77600000D03*
%TO.P,J2,6,Pin_6_6*%
%TO.N,/TX*%
X109000000Y-80140000D03*
D14*
%TO.P,J2,7,Pin_7_7*%
%TO.N,/RX*%
X109000000Y-82680000D03*
D10*
%TO.P,J2,8,Pin_8_8*%
%TO.N,unconnected-(J2-Pin_8-Pad8)*%
X109000000Y-85220000D03*
%TO.P,J2,9,Pin_9_9*%
%TO.N,unconnected-(J2-Pin_9-Pad9)*%
X109000000Y-87760000D03*
%TO.P,J2,10,Pin_10_10*%
%TO.N,unconnected-(J2-Pin_10-Pad10)*%
X109000000Y-90300000D03*
%TO.P,J2,11,Pin_11_11*%
%TO.N,unconnected-(J2-Pin_11-Pad11)*%
X109000000Y-92840000D03*
%TO.P,J2,12,Pin_12_12*%
%TO.N,unconnected-(J2-Pin_12-Pad12)*%
X109000000Y-95380000D03*
%TO.P,J2,13,Pin_13_13*%
%TO.N,unconnected-(J2-Pin_13-Pad13)*%
X109000000Y-97920000D03*
%TO.P,J2,14,Pin_14_14*%
%TO.N,unconnected-(J2-Pin_14-Pad14)*%
X109000000Y-100460000D03*
%TO.P,J2,15,Pin_15_15*%
%TO.N,unconnected-(J2-Pin_15-Pad15)*%
X109000000Y-103000000D03*
%TD*%
%TO.N,/VIN*%
D15*
X129500000Y-67440000D02*
X133000000Y-67440000D01*
X126000000Y-113000000D02*
X126000000Y-70940000D01*
X122500000Y-116500000D02*
X126000000Y-113000000D01*
X126000000Y-70940000D02*
X129500000Y-67440000D01*
%TO.N,/RX*%
X108660000Y-83020000D02*
X101020000Y-83020000D01*
X109000000Y-82680000D02*
X108660000Y-83020000D01*
X101020000Y-83020000D02*
X101000000Y-83040000D01*
%TO.N,/TX*%
X109000000Y-80140000D02*
X108640000Y-80500000D01*
X108640000Y-80500000D02*
X101000000Y-80500000D01*
%TO.N,/GND*%
X117500000Y-116500000D02*
X117500000Y-77065787D01*
X117500000Y-77065787D02*
X110414213Y-69980000D01*
X109000000Y-69980000D02*
X107520000Y-69980000D01*
X101000000Y-76500000D02*
X101000000Y-77960000D01*
X107520000Y-69980000D02*
X101000000Y-76500000D01*
X110414213Y-69980000D02*
X109000000Y-69980000D01*
%TD*%
M02*
