M48
; DRILL file KiCad 10.0.3 date 2026-08-28T14:23:05
; FORMAT={-:-/ absolute / metric / decimal}
; #@! TF.CreationDate,2026-08-28T14:23:05-03:00
; #@! TF.GenerationSoftware,Kicad,Pcbnew,10.0.3
; #@! TF.FileFunction,Plated,1,2,PTH
FMAT,2
METRIC
; #@! TA.AperFunction,Plated,PTH,ComponentDrill
T1C1.000
; #@! TA.AperFunction,Plated,PTH,ComponentDrill
T2C1.300
%
G90
G05
T1
X101.0Y-77.96
X101.0Y-80.5
X101.0Y-83.04
X109.0Y-67.44
X109.0Y-69.98
X109.0Y-72.52
X109.0Y-75.06
X109.0Y-77.6
X109.0Y-80.14
X109.0Y-82.68
X109.0Y-85.22
X109.0Y-87.76
X109.0Y-90.3
X109.0Y-92.84
X109.0Y-95.38
X109.0Y-97.92
X109.0Y-100.46
X109.0Y-103.0
X133.0Y-67.44
X133.0Y-69.98
X133.0Y-72.52
X133.0Y-75.06
X133.0Y-77.6
X133.0Y-80.14
X133.0Y-82.68
X133.0Y-85.22
X133.0Y-87.76
X133.0Y-90.3
X133.0Y-92.84
X133.0Y-95.38
X133.0Y-97.92
X133.0Y-100.46
X133.0Y-103.0
T2
X117.5Y-116.5
X122.5Y-116.5
M30
